<svg xmlns="http://www.w3.org/2000/svg" viewBox="0 0 24 24" fill="none">
  <!-- Gamepad - Custom Installations Icon -->
  <defs>
    <linearGradient id="gamepadGrad" x1="0%" y1="0%" x2="100%" y2="100%">
      <stop offset="0%" style="stop-color:#FFFFFF"/>
      <stop offset="100%" style="stop-color:#E0E0E0"/>
    </linearGradient>
  </defs>
  <!-- Controller Body -->
  <path d="M6 8 C3 8 2 10 2 12 C2 16 4 18 6 18 L8 18 C9 18 10 17 10 16 L10 14 L14 14 L14 16 C14 17 15 18 16 18 L18 18 C20 18 22 16 22 12 C22 10 21 8 18 8 L6 8 Z" fill="url(#gamepadGrad)" stroke="#BDBDBD" stroke-width="1"/>
  <!-- D-Pad -->
  <rect x="5" y="11" width="4" height="1.5" rx="0.5" fill="#757575"/>
  <rect x="6.25" y="9.75" width="1.5" height="4" rx="0.5" fill="#757575"/>
  <!-- Buttons -->
  <circle cx="17" cy="11" r="1.2" fill="#9C27B0"/>
  <circle cx="19" cy="13" r="1.2" fill="#F44336"/>
  <circle cx="15" cy="13" r="1.2" fill="#2196F3"/>
  <circle cx="17" cy="15" r="1.2" fill="#4CAF50"/>
</svg>